# xmcd CD database file
#
# Track frame offsets:
#	150
#	23945
#	49164
#	87463
#	122397
#	162132
#	189734
#	226618
#	249805
#
# Disc length: 3575 seconds
#
# Revision: 0
# Processed by: cddbd v1.5.1PL0 Copyright (c) Steve Scherf et al.
# Submitted via: CDex 1.51
#
DISCID=630df509
DTITLE=The Strings'n'Feelings - Bright ray of sunshine
DYEAR=1900
DGENRE=New Age
TTITLE0=Faith and devotion
TTITLE1=Boundless imagination
TTITLE2=Symphonic bells and winds
TTITLE3=Sympathy and embrace
TTITLE4=Inner worlds of heart
TTITLE5=Our great journey
TTITLE6=Deep stellar dreams
TTITLE7=Sunrising forever
TTITLE8=Spiritual rainbow
EXTD=
EXTT0=
EXTT1=
EXTT2=
EXTT3=
EXTT4=
EXTT5=
EXTT6=
EXTT7=
EXTT8=
PLAYORDER=
